<?xml version="1.0" encoding="utf-8"?>
<!-- Generator: Adobe Illustrator 19.0.0, SVG Export Plug-In . SVG Version: 6.00 Build 0)  -->
<svg version="1.1" id="Layer_1" xmlns="http://www.w3.org/2000/svg" xmlns:xlink="http://www.w3.org/1999/xlink" x="0px" y="0px"
	 viewBox="0 0 512 512" style="enable-background:new 0 0 512 512;" xml:space="preserve">
<style type="text/css">
	.st0{fill:#222425;}
	.st1{fill:#222425;stroke:#F26731;stroke-width:12;stroke-miterlimit:10;}
	.st2{fill:#E44B25;}
	.st3{fill:#F26731;}
	.st4{fill:#ECF0F2;}
	.st5{fill:#726C6A;}
</style>
<path id="XMLID_12_" class="st0" d="M375.2,29.5c-0.3-0.2-0.7-0.4-1-0.6c-1.3-0.6-2.4-1.3-3.7-1.9c-0.8-0.4-1.7-0.8-2.5-1.3
	c-0.7-0.3-1.5-0.7-2.3-1c-1.3-0.6-2.6-1.3-3.9-1.8c-0.3-0.1-0.6-0.3-0.9-0.4C266.7-20,152-2.5,74.7,74.8l0.3,0.3
	c-46.4,46.3-75,110.3-75,181c0,141.4,114.6,256,256,256s256-114.6,256-256C512,157.8,456.5,72.4,375.2,29.5z"/>
<path id="XMLID_11_" class="st1" d="M256,505.8c-66.7,0-129.4-26-176.6-73.1C32.2,385.5,6.3,322.8,6.3,256.1s26-129.4,73.1-176.6
	l4.4-4.4l-0.2-0.2C130.2,30.6,191,6.3,255.5,6.3c35.3,0,70.7,7.7,102.6,22l0.9,0.4c1.3,0.6,2.5,1.2,3.8,1.8c0.7,0.3,1.5,0.7,2.2,1
	c0.8,0.4,1.7,0.8,2.4,1.3c1.2,0.6,2.4,1.2,3.6,1.8l1,0.5c82.4,43.4,133.5,128.1,133.5,221.1c0,66.7-26,129.4-73.1,176.6
	S322.7,505.8,256,505.8z"/>
<circle id="XMLID_10_" class="st2" cx="256" cy="256.1" r="110"/>
<path id="XMLID_9_" class="st3" d="M146,256.1c0-60.4,49.5-110,110-110s110,49.5,110,110"/>
<circle id="XMLID_8_" class="st4" cx="256" cy="256.1" r="31.1"/>
<path id="XMLID_7_" class="st4" d="M256,287.2c-16.8,0-31.1-14.3-31.1-31.1s13.4-31.1,31.1-31.1"/>
<g id="XMLID_2_">
	<path id="XMLID_6_" class="st5" d="M256,470.1c-118.3,0-214-95.7-214-214c0-4.2,3.4-8.4,8.4-8.4c4.2,0,8.4,3.4,8.4,8.4
		C57.9,365.2,146.9,454.2,256,454.2c4.2,0,8.4,3.4,8.4,8.4C264.4,466.8,260.2,470.1,256,470.1z"/>
	<path id="XMLID_5_" class="st5" d="M462.5,264.5c-4.2,0-8.4-3.4-8.4-8.4C454.1,147,365.1,58,256,58c-4.2,0-8.4-3.4-8.4-8.4
		c0-4.2,3.4-8.4,8.4-8.4c118.3,0,214,96.5,214,214C470,260.3,466.7,264.5,462.5,264.5z"/>
	<path id="XMLID_4_" class="st5" d="M256,420.6c-90.6,0-164.5-73.9-164.5-164.5c0-4.2,3.4-8.4,8.4-8.4c4.2,0,8.4,3.4,8.4,8.4
		c0,81.4,66.3,148.6,148.6,148.6c4.2,0,8.4,3.4,8.4,8.4C264.4,417.3,260.2,420.6,256,420.6z"/>
	<path id="XMLID_3_" class="st5" d="M412.1,264.5c-4.2,0-8.4-3.4-8.4-8.4c0-81.4-66.3-148.6-148.6-148.6c-4.2,0-8.4-3.4-8.4-8.4
		c0-4.2,3.4-8.4,8.4-8.4c90.6,0,164.5,73.9,164.5,164.5C420.5,260.3,417.2,264.5,412.1,264.5z"/>
</g>
</svg>
