<?xml version="1.0" encoding="utf-8"?>
<!-- Generator: Adobe Illustrator 19.0.0, SVG Export Plug-In . SVG Version: 6.00 Build 0)  -->
<svg version="1.1" id="Layer_1" xmlns="http://www.w3.org/2000/svg" xmlns:xlink="http://www.w3.org/1999/xlink" x="0px" y="0px"
	 viewBox="0 0 512 512" style="enable-background:new 0 0 512 512;" xml:space="preserve">
<style type="text/css">
	.st0{fill:#222325;}
	.st1{fill:#222325;stroke:#F26731;stroke-width:12;stroke-miterlimit:10;}
	.st2{fill:#F26731;}
</style>
<circle class="st0" cx="256" cy="256" r="256"/>
<path class="st1" d="M256,506c-66.8,0-129.6-26-176.8-73.2C32,385.6,6,322.8,6,256S32,126.4,79.2,79.2C126.4,32,189.2,6,256,6
	s129.6,26,176.8,73.2C480,126.4,506,189.2,506,256s-26,129.6-73.2,176.8S322.8,506,256,506z"/>
<g id="XMLID_1_">
	<path id="XMLID_5_" class="st2" d="M180.2,401.2l-76.3,41.6c-4.5,2.5-8.5,5.4-12.3,8.7c44.4,37.5,101.9,60.1,164.7,60.1
		c62.3,0,119.3-22.3,163.7-59.3c-4.1-3.4-8.5-6.5-13.5-9l-81.7-40.8c-10.6-5.3-17.2-16.1-17.2-27.8v-32.1c2.3-2.6,4.9-6,7.7-10
		c11.2-15.7,19.7-33,25.5-51.2c10.5-3.2,18.2-12.9,18.2-24.4v-34.3c0-7.5-3.3-14.2-8.5-19v-49.4c0,0,10.2-77-94.1-77
		s-94.1,77-94.1,77v49.4c-5.2,4.7-8.5,11.4-8.5,19V257c0,9,4.8,16.9,11.8,21.5c8.5,37.2,30.9,64,30.9,64v31.3
		C196.4,385.3,190.1,395.8,180.2,401.2z"/>
</g>
</svg>
