<?xml version="1.0" encoding="utf-8"?>
<!-- Generator: Adobe Illustrator 19.0.0, SVG Export Plug-In . SVG Version: 6.00 Build 0)  -->
<svg version="1.1" id="Layer_1" xmlns="http://www.w3.org/2000/svg" xmlns:xlink="http://www.w3.org/1999/xlink" x="0px" y="0px"
	 viewBox="0 0 512 512" style="enable-background:new 0 0 512 512;" xml:space="preserve">
<style type="text/css">
	.st0{fill:#222425;}
	.st1{fill:#F16824;}
</style>
<g id="XMLID_2_">
	<path id="XMLID_3_" class="st0" d="M373.3,505.9c-27.7,0-46.9-14.9-46.9-36.2c0-2.2,0-4.4,0-6.5c-0.1-12.4-0.3-22.1,4.8-26.3
		c2.8-2.3,7.8-3.4,15.4-3.4h112.6V231.9L186.6,198v200.5c0,3.6,0,7.1,0.1,10.2c0.1,13.9,0.3,23.8-3.4,26.9c-2,1.7-6.8,2.5-14.8,2.5
		H53c-26.3,0-46.9-17.7-46.9-40.4c0-2.2,0-4.4,0-6.5c-0.1-13.5-0.3-25.3,5.8-30.4c2.9-2.4,7.6-3.5,14.4-3.5h113.6V44.8
		c0-21.2,20.4-38.4,45.4-38.7L457.6,40c29.7,3.8,48.1,18.7,48.1,38.8v391c0,3.5,0.1,6.8,0.1,10c0.3,10.5,0.5,19.7-3.7,23.2
		c-2.3,2-7,2.9-13.7,2.9L373.3,505.9L373.3,505.9z"/>
	<path id="XMLID_4_" class="st1" d="M488.5,512H373.3c-31.2,0-53-17.4-53-42.2l0-6.6c-0.1-13.9-0.3-24.8,7-30.8
		c4-3.3,10.1-4.8,19.3-4.8h106.5V237.3l-260.4-32.4v193.6c0,3.6,0,7,0.1,10l0,0.6c0.2,16.4,0.2,26.2-5.6,31.2
		c-3.4,2.8-9,3.9-18.7,3.9H53c-29.7,0-53-20.4-53-46.5l0-6.5c-0.1-15.1-0.3-28.1,8-35c4.1-3.4,9.9-5,18.3-5h107.5V44.8
		c0-24.4,23.1-44.5,51.4-44.8l0.4,0l0.4,0l272.3,33.9c32.9,4.2,53.4,21.3,53.4,44.8v391c0,1.8,0,3.5,0.1,5.1c0,1.6,0.1,3.2,0.1,4.8
		l0,0.2c0.3,12,0.5,22.4-5.8,27.8C502.7,510.6,497.1,512,488.5,512z M346.6,439.7c-8.4,0-11,1.6-11.6,2.1
		c-2.8,2.3-2.7,11.9-2.6,21.3l0,0.2v6.5c0,17.7,16.8,30.1,40.9,30.1h115.2c7.8,0,9.7-1.4,9.7-1.4c2-1.7,1.7-12,1.6-18.2l0-0.4
		c0-1.5,0-3.1-0.1-4.7c0-1.7-0.1-3.5-0.1-5.3v-391c0-16.8-16.4-29.4-42.8-32.7L185,12.2c-21.5,0.4-39,14.9-39,32.6v318.6H26.3
		c-6.6,0-9.4,1.2-10.6,2.2c-3.8,3.2-3.7,14.6-3.6,25.5l0,0.1l0,6.5c0,19.3,17.9,34.3,40.9,34.3h115.5c7.5,0,10.1-0.8,10.9-1.1
		c1.5-2.6,1.4-13.2,1.3-21.7l0-0.3c-0.1-3.2-0.1-6.7-0.1-10.4V191.1l284.7,35.4v213.2H346.6z"/>
</g>
</svg>
