<?xml version="1.0" encoding="utf-8"?>
<!-- Generator: Adobe Illustrator 19.0.0, SVG Export Plug-In . SVG Version: 6.00 Build 0)  -->
<svg version="1.1" id="Layer_1" xmlns="http://www.w3.org/2000/svg" xmlns:xlink="http://www.w3.org/1999/xlink" x="0px" y="0px"
	 viewBox="0 0 512 512" style="enable-background:new 0 0 512 512;" xml:space="preserve">
<style type="text/css">
	.st0{fill:#222425;stroke:#F26731;stroke-width:12;stroke-miterlimit:10;}
	.st1{fill:#222425;}
	.st2{fill:#F26731;}
	.st3{fill:#E44B25;}
</style>
<g id="XMLID_1_">
	<path id="XMLID_9_" class="st0" d="M401,494.1c-7.9,0-15.9-1.1-23.6-3.3c-17.1-4.4-29.4-12.9-36.5-25.3
		c-9.7-16.9-10.2-40.4-1.4-74.1c5.8-22.3,12.6-37.9,21.1-49.4c10.8-14.4,24.9-21.8,41.9-21.8c0.9,0,1.8,0,2.8,0.1l20-80.2
		C423.2,147.3,347.6,72,256.1,72c-7.4,0-14.9,0.5-22.3,1.5c-82,11.1-145,82.7-146.8,166.8l19.2,80.2c1.2-0.1,2.4-0.1,3.5-0.1
		c17,0,31,7.3,41.9,21.8c8.6,11.4,15.4,27.2,21.1,49.4c8.8,33.7,8.3,57.3-1.4,74.1c-7.2,12.4-19.5,20.8-36.5,25.3
		c-7.7,2.1-15.7,3.3-23.6,3.3c-39.2,0-73.5-26.5-83.4-64.5c-7.1-27.5-0.1-56.6,18.9-78.6l-24.5-98.6c-1-3.3-1-5.7-1-8.2
		c0-131.2,105.4-238,235-238s235,106.8,235,238c0,2.5,0,5-1,8.2l-24.5,98.6c19,22,26.1,51.2,18.9,78.6
		C474.5,467.6,440.2,494.1,401,494.1L401,494.1z"/>
	<path id="XMLID_8_" class="st1" d="M485,244.1c0-127.7-102.8-231.9-228.9-231.9S27.2,116.4,27.2,244.1c0,2.4,0,4.1,0.8,6.5
		l25.4,101.9C35,372.3,26.5,400.5,33.6,428c11.2,43.1,55.4,69.2,99.6,57c44.2-11.4,45-48.8,33.7-91.9c-10.4-40.2-27.3-71.2-65.4-66
		L81,240.9c1.5-88.9,67.3-162,152-173.4c7.5-1,15.3-1.5,23.1-1.5c95.6,0,173.5,78.1,175.1,174.9l-21.4,86
		c-37.6-4.7-54.1,26.1-64.6,66.1C334,436.2,334.8,473.6,379,485c44.2,12.2,88.4-13.8,99.6-57c7.1-27.5-1.4-55.6-19.8-75.5
		l25.4-101.9C485,248.2,485,246.6,485,244.1z"/>
	<path id="XMLID_7_" class="st2" d="M384.6,273.4c-43.4-12.2-66.7,39.1-83.5,104.1c-16.9,65.9-20.9,121.2,23.3,132.6
		c44.2,11.4,93.2-32.5,110-97.6C450.5,347.5,428.8,284.8,384.6,273.4z"/>
	<path id="XMLID_6_" class="st3" d="M375.8,397.1c-16.9,65.1-8,124.5-52.2,113.1c-44.2-11.4-40.2-66.7-23.3-132.6
		c16.9-65.1,40.2-116.4,83.5-104.1C428.8,284.8,392.7,332,375.8,397.1z"/>
	<path id="XMLID_5_" class="st2" d="M211.1,377.6c-16.9-65.1-40.2-116.4-83.5-104.1c-44.2,11.4-65.9,74-49.8,139.1
		c16.9,65.1,65.9,109,110,97.6C232,498.8,228,443.5,211.1,377.6z"/>
	<path id="XMLID_4_" class="st3" d="M136.4,397.1c16.9,65.1,8,124.5,52.2,113.1c44.2-11.4,40.2-66.7,23.3-132.6
		c-16.9-65.1-40.2-116.4-83.5-104.1C83.4,284.8,119.5,332,136.4,397.1z"/>
	<path id="XMLID_3_" class="st2" d="M211.1,377.6c-16.9-65.1-40.2-116.4-83.5-104.1c-44.2,11.4-65.9,74-49.8,139.1
		c16.9,65.1,65.9,109,110,97.6C232,498.8,228,443.5,211.1,377.6z"/>
	<path id="XMLID_2_" class="st3" d="M136.4,397.1c16.9,65.1,8,124.5,52.2,113.1c44.2-11.4,40.2-66.7,23.3-132.6
		c-16.9-65.1-40.2-116.4-83.5-104.1C83.4,284.8,119.5,332,136.4,397.1z"/>
</g>
</svg>
